<?xml version="1.0" encoding="UTF-8" standalone="no"?>
<!DOCTYPE svg PUBLIC "-//W3C//DTD SVG 1.1//EN" "http://www.w3.org/Graphics/SVG/1.1/DTD/svg11.dtd">
<svg xmlns="http://www.w3.org/2000/svg" version="1.1" viewBox="0.00 0.00 512.00 512.00">
<g stroke-width="2.00" fill="none" stroke-linecap="butt">
<path stroke="#1c1c1c" vector-effect="non-scaling-stroke" d="
  M 270.58 91.50
  C 245.20 93.49 214.37 96.75 190.53 101.46
  Q 176.38 104.26 162.25 107.26
  Q 154.62 108.88 145.00 113.53
  C 143.82 114.10 142.80 114.48 142.71 116.00
  C 142.18 124.53 144.64 133.58 146.43 142.09
  C 149.35 155.98 152.83 169.75 155.44 183.72
  Q 157.17 193.01 157.22 202.20
  A 2.17 2.17 0.0 0 0 159.15 204.33
  Q 171.39 205.65 183.75 206.25
  C 197.52 206.92 212.21 206.14 226.42 205.53
  C 244.91 204.75 263.26 201.32 281.50 198.34
  C 292.51 196.54 302.70 193.91 313.10 191.09
  A 2.19 2.19 0.0 0 0 314.70 188.74
  C 313.70 179.72 311.70 169.94 310.78 162.06
  Q 306.77 127.67 305.35 93.05
  Q 305.27 91.30 304.76 90.55
  C 303.44 88.59 298.32 88.45 296.20 88.69
  C 287.66 89.68 279.51 90.80 270.58 91.50"
/>
<path stroke="#868686" vector-effect="non-scaling-stroke" d="
  M 314.80 219.84
  C 318.23 218.93 324.71 217.48 329.53 215.81
  Q 330.20 215.58 330.12 214.88
  C 329.41 209.10 327.95 200.80 324.35 196.15
  A 0.83 0.83 0.0 0 0 323.47 195.86
  Q 322.50 196.14 321.54 196.40
  C 265.98 211.16 208.63 217.37 151.39 210.40
  A 0.58 0.58 0.0 0 0 150.74 211.02
  L 152.02 229.90
  Q 152.05 230.36 152.51 230.42
  Q 234.85 241.04 314.80 219.84"
/>
<path stroke="#1c1c1c" vector-effect="non-scaling-stroke" d="
  M 131.11 234.72
  Q 127.48 235.20 124.34 235.46
  A 0.89 0.89 0.0 0 0 124.11 237.18
  Q 128.88 238.88 133.20 239.76
  Q 137.12 240.55 140.35 241.75
  C 146.75 244.14 152.89 244.85 159.26 246.01
  C 177.34 249.30 196.89 249.80 215.24 249.65
  C 229.11 249.54 243.78 247.21 258.05 245.66
  Q 268.42 244.53 277.80 242.60
  Q 305.91 236.80 315.22 234.12
  Q 340.97 226.72 350.46 223.16
  Q 357.68 220.45 364.41 216.62
  A 0.96 0.96 0.0 0 0 364.15 214.85
  C 362.23 214.39 360.04 214.37 357.95 214.83
  Q 349.96 216.57 342.03 218.58
  C 337.92 219.63 333.63 221.82 329.18 223.02
  C 310.24 228.15 291.02 232.77 271.64 235.86
  Q 255.97 238.37 248.50 238.77
  Q 240.48 239.20 232.50 239.86
  Q 222.13 240.72 216.48 240.88
  Q 182.02 241.82 153.52 237.10
  C 144.87 235.67 137.66 233.85 131.11 234.72"
/>
<path stroke="#776364" vector-effect="non-scaling-stroke" d="
  M 149.62 323.93
  A 1.02 1.02 0.0 0 1 150.14 325.84
  Q 144.88 328.78 138.75 328.87
  A 0.89 0.89 0.0 0 0 137.89 329.94
  C 148.89 383.66 198.39 418.85 252.75 416.11
  Q 289.56 414.26 319.42 390.96
  A 0.77 0.77 0.0 0 0 318.95 389.59
  Q 311.12 389.57 302.90 389.64
  Q 300.36 389.66 297.77 390.66
  C 284.71 395.74 272.02 396.80 259.84 388.46
  A 1.06 1.05 -36.1 0 0 258.93 388.32
  C 241.18 393.62 217.92 392.57 205.62 377.38
  C 196.21 365.76 193.97 347.95 196.85 333.28
  A 0.86 0.86 0.0 0 1 198.28 332.82
  C 208.10 341.94 224.70 350.97 237.70 343.68
  C 241.95 341.30 246.21 336.84 251.16 335.18
  C 259.99 332.21 271.80 332.03 279.98 337.25
  Q 282.81 339.06 285.16 340.66
  A 3.47 3.45 45.9 0 0 288.97 340.73
  Q 293.36 337.95 296.93 335.46
  C 299.91 333.39 300.88 330.97 299.45 327.64
  C 298.40 325.18 296.40 325.01 293.99 325.16
  Q 288.25 325.52 282.79 327.29
  A 0.58 0.58 0.0 0 1 282.27 326.28
  C 288.28 321.80 302.48 316.16 304.28 328.51
  Q 304.63 330.93 303.59 334.32
  Q 303.40 334.94 304.03 334.80
  Q 306.33 334.28 308.53 333.68
  Q 328.07 328.42 344.96 338.85
  Q 348.07 340.76 353.30 339.88
  Q 353.75 339.80 353.87 339.36
  C 364.28 302.47 353.10 264.79 325.25 238.54
  Q 324.90 238.22 324.45 238.35
  C 270.27 253.67 212.88 261.14 156.84 252.52
  A 0.65 0.63 23.0 0 0 156.23 252.76
  Q 145.06 267.17 140.34 284.79
  A 0.85 0.85 0.0 0 0 141.23 285.86
  C 148.61 285.35 160.53 290.67 158.49 300.04
  A 1.20 1.19 -50.8 0 1 156.23 300.27
  C 152.72 292.32 142.26 290.16 135.31 294.75
  C 127.82 299.70 126.58 312.58 132.06 319.34
  C 136.36 324.66 143.33 324.06 149.62 323.93"
/>
<path stroke="#868686" vector-effect="non-scaling-stroke" d="
  M 392.90 335.31
  A 0.54 0.54 0.0 0 0 391.87 335.01
  C 388.24 343.60 382.22 350.51 384.17 360.39
  A 0.42 0.42 0.0 0 0 384.98 360.44
  C 387.77 351.82 391.34 344.66 392.90 335.31"
/>
<path stroke="#868686" vector-effect="non-scaling-stroke" d="
  M 297.05 362.75
  L 297.64 364.40
  Q 297.83 364.92 298.39 364.92
  L 358.08 364.99
  Q 358.62 364.99 358.94 364.56
  Q 366.61 354.18 369.11 341.50
  A 0.45 0.45 0.0 0 0 368.42 341.04
  C 361.60 345.43 353.37 348.16 345.32 346.05
  Q 344.13 345.74 337.41 342.46
  C 322.10 334.99 307.97 339.91 293.50 346.53
  C 287.39 349.32 284.49 348.32 278.75 344.55
  Q 269.44 338.43 258.33 340.44
  C 252.34 341.52 249.03 344.20 244.21 347.98
  C 232.47 357.16 214.69 353.01 203.34 345.23
  Q 202.91 344.94 202.89 345.46
  C 202.32 360.29 208.40 375.83 222.75 381.46
  C 248.51 391.58 275.79 377.57 296.22 362.50
  A 0.54 0.54 0.0 0 1 297.05 362.75"
/>
<path stroke="#762134" vector-effect="non-scaling-stroke" d="
  M 369.55 375.26
  Q 368.69 379.86 370.46 384.23
  A 0.94 0.94 0.0 0 0 372.04 384.49
  C 373.45 382.83 371.90 379.55 372.67 377.21
  A 0.34 0.34 0.0 0 1 373.32 377.25
  L 374.09 381.26
  A 0.59 0.59 0.0 0 0 375.23 381.33
  Q 377.28 374.92 372.99 369.82
  Q 372.64 369.39 372.09 369.34
  C 369.20 369.07 359.78 368.36 358.05 371.60
  Q 354.76 377.79 358.50 383.55
  A 0.83 0.83 0.0 0 0 360.01 383.00
  Q 359.64 379.88 360.13 376.50
  Q 360.27 375.52 360.90 375.09
  Q 361.34 374.78 361.36 375.32
  L 361.69 383.32
  Q 361.71 383.93 362.32 383.98
  L 367.72 384.36
  A 0.41 0.40 -2.3 0 0 368.15 383.90
  Q 367.49 379.44 368.79 375.07
  A 0.39 0.39 0.0 0 1 369.55 375.26"
/>
<path stroke="#412c19" vector-effect="non-scaling-stroke" d="
  M 308.11 370.75
  L 352.85 385.29
  A 0.79 0.79 0.0 0 0 353.83 384.26
  Q 351.14 377.26 353.74 370.24
  A 0.55 0.54 -80.7 0 0 353.22 369.51
  Q 331.12 369.92 309.00 369.32
  Q 307.89 369.29 307.67 369.79
  Q 307.36 370.51 308.11 370.75"
/>
<path stroke="#412c19" vector-effect="non-scaling-stroke" d="
  M 332.10 381.15
  Q 316.56 376.18 301.25 370.49
  Q 297.76 369.19 295.89 369.54
  C 288.90 370.85 289.37 385.12 297.00 385.03
  Q 310.92 384.85 324.84 385.19
  C 329.99 385.32 335.26 384.96 340.47 384.84
  Q 340.77 384.83 341.00 384.72
  Q 341.32 384.57 341.49 384.43
  A 0.53 0.52 33.6 0 0 341.30 383.52
  C 338.24 382.58 334.92 382.06 332.10 381.15"
/>
<path stroke="#762134" vector-effect="non-scaling-stroke" d="
  M 268.47 385.49
  A 0.34 0.34 0.0 0 0 268.56 386.12
  L 277.82 388.28
  A 0.34 0.34 0.0 0 0 277.94 388.28
  L 288.51 387.18
  A 0.34 0.34 0.0 0 0 288.80 386.76
  L 285.99 376.14
  A 0.34 0.34 0.0 0 0 285.50 375.93
  L 268.47 385.49"
/>
<path stroke="#776364" vector-effect="non-scaling-stroke" d="
  M 243.98 292.28
  L 232.30 297.82
  A 2.06 2.04 -14.3 0 0 231.13 299.77
  C 231.53 307.69 235.93 325.00 245.77 326.70
  C 266.86 330.35 260.37 283.47 258.16 274.04
  C 256.15 265.46 250.73 252.89 239.90 257.78
  C 231.59 261.53 229.96 276.26 230.03 283.92
  A 1.61 1.61 0.0 0 0 231.00 285.40
  L 243.96 291.02
  A 0.69 0.69 0.0 0 1 243.98 292.28"
/>
<path stroke="#776364" vector-effect="non-scaling-stroke" d="
  M 319.24 291.41
  L 307.26 296.87
  Q 306.10 297.40 306.26 298.66
  C 307.35 307.44 310.64 324.95 321.47 326.67
  C 340.10 329.63 336.41 290.90 334.99 281.77
  C 333.79 274.00 331.09 259.18 322.44 257.18
  C 308.60 253.98 305.41 273.34 305.48 282.75
  A 1.69 1.68 -78.4 0 0 306.48 284.28
  L 319.23 289.92
  A 0.82 0.82 0.0 0 1 319.24 291.41"
/>
<path stroke="#f0dddd" vector-effect="non-scaling-stroke" d="
  M 156.85 270.27
  Q 167.12 275.16 178.50 274.15
  Q 181.19 273.91 182.01 271.31
  A 1.67 1.67 0.0 0 0 180.71 269.16
  L 153.25 264.38
  A 1.62 1.62 0.0 0 0 151.70 266.97
  Q 153.11 268.79 155.00 269.54
  Q 156.78 270.24 156.85 270.27"
/>
<path stroke="#f0dddd" vector-effect="non-scaling-stroke" d="
  M 155.37 275.53
  Q 152.26 275.54 149.13 275.48
  Q 148.62 275.47 148.28 275.85
  Q 147.44 276.82 147.91 277.81
  Q 148.27 278.57 149.54 279.05
  C 157.36 282.03 165.97 284.74 174.43 284.76
  A 1.54 1.54 0.0 0 0 175.97 283.11
  C 175.84 281.41 174.72 281.17 173.52 280.47
  Q 165.15 275.52 155.37 275.53"
/>
<path stroke="#776364" vector-effect="non-scaling-stroke" d="
  M 185.82 375.00
  C 186.65 364.86 180.60 354.13 172.09 348.98
  A 0.74 0.74 0.0 0 0 171.11 350.06
  C 177.85 359.15 182.93 366.48 182.97 378.38
  A 0.85 0.85 0.0 0 0 184.52 378.87
  Q 185.63 377.30 185.82 375.00"
/>
<path stroke="#762134" vector-effect="non-scaling-stroke" d="
  M 363.64 374.56
  Q 364.09 377.63 363.48 380.71
  Q 363.27 381.77 363.50 382.30
  Q 363.87 383.15 364.90 383.15
  A 0.71 0.71 0.0 0 0 365.60 382.36
  L 364.71 374.39
  Q 364.68 374.09 364.37 374.09
  L 364.05 374.09
  Q 363.57 374.09 363.64 374.56"
/>
</g>
<path fill="#0c0c0c" d="
  M 0.00 0.00
  L 512.00 0.00
  L 512.00 512.00
  L 0.00 512.00
  L 0.00 0.00
  Z
  M 270.58 91.50
  C 245.20 93.49 214.37 96.75 190.53 101.46
  Q 176.38 104.26 162.25 107.26
  Q 154.62 108.88 145.00 113.53
  C 143.82 114.10 142.80 114.48 142.71 116.00
  C 142.18 124.53 144.64 133.58 146.43 142.09
  C 149.35 155.98 152.83 169.75 155.44 183.72
  Q 157.17 193.01 157.22 202.20
  A 2.17 2.17 0.0 0 0 159.15 204.33
  Q 171.39 205.65 183.75 206.25
  C 197.52 206.92 212.21 206.14 226.42 205.53
  C 244.91 204.75 263.26 201.32 281.50 198.34
  C 292.51 196.54 302.70 193.91 313.10 191.09
  A 2.19 2.19 0.0 0 0 314.70 188.74
  C 313.70 179.72 311.70 169.94 310.78 162.06
  Q 306.77 127.67 305.35 93.05
  Q 305.27 91.30 304.76 90.55
  C 303.44 88.59 298.32 88.45 296.20 88.69
  C 287.66 89.68 279.51 90.80 270.58 91.50
  Z
  M 314.80 219.84
  C 318.23 218.93 324.71 217.48 329.53 215.81
  Q 330.20 215.58 330.12 214.88
  C 329.41 209.10 327.95 200.80 324.35 196.15
  A 0.83 0.83 0.0 0 0 323.47 195.86
  Q 322.50 196.14 321.54 196.40
  C 265.98 211.16 208.63 217.37 151.39 210.40
  A 0.58 0.58 0.0 0 0 150.74 211.02
  L 152.02 229.90
  Q 152.05 230.36 152.51 230.42
  Q 234.85 241.04 314.80 219.84
  Z
  M 131.11 234.72
  Q 127.48 235.20 124.34 235.46
  A 0.89 0.89 0.0 0 0 124.11 237.18
  Q 128.88 238.88 133.20 239.76
  Q 137.12 240.55 140.35 241.75
  C 146.75 244.14 152.89 244.85 159.26 246.01
  C 177.34 249.30 196.89 249.80 215.24 249.65
  C 229.11 249.54 243.78 247.21 258.05 245.66
  Q 268.42 244.53 277.80 242.60
  Q 305.91 236.80 315.22 234.12
  Q 340.97 226.72 350.46 223.16
  Q 357.68 220.45 364.41 216.62
  A 0.96 0.96 0.0 0 0 364.15 214.85
  C 362.23 214.39 360.04 214.37 357.95 214.83
  Q 349.96 216.57 342.03 218.58
  C 337.92 219.63 333.63 221.82 329.18 223.02
  C 310.24 228.15 291.02 232.77 271.64 235.86
  Q 255.97 238.37 248.50 238.77
  Q 240.48 239.20 232.50 239.86
  Q 222.13 240.72 216.48 240.88
  Q 182.02 241.82 153.52 237.10
  C 144.87 235.67 137.66 233.85 131.11 234.72
  Z
  M 149.62 323.93
  A 1.02 1.02 0.0 0 1 150.14 325.84
  Q 144.88 328.78 138.75 328.87
  A 0.89 0.89 0.0 0 0 137.89 329.94
  C 148.89 383.66 198.39 418.85 252.75 416.11
  Q 289.56 414.26 319.42 390.96
  A 0.77 0.77 0.0 0 0 318.95 389.59
  Q 311.12 389.57 302.90 389.64
  Q 300.36 389.66 297.77 390.66
  C 284.71 395.74 272.02 396.80 259.84 388.46
  A 1.06 1.05 -36.1 0 0 258.93 388.32
  C 241.18 393.62 217.92 392.57 205.62 377.38
  C 196.21 365.76 193.97 347.95 196.85 333.28
  A 0.86 0.86 0.0 0 1 198.28 332.82
  C 208.10 341.94 224.70 350.97 237.70 343.68
  C 241.95 341.30 246.21 336.84 251.16 335.18
  C 259.99 332.21 271.80 332.03 279.98 337.25
  Q 282.81 339.06 285.16 340.66
  A 3.47 3.45 45.9 0 0 288.97 340.73
  Q 293.36 337.95 296.93 335.46
  C 299.91 333.39 300.88 330.97 299.45 327.64
  C 298.40 325.18 296.40 325.01 293.99 325.16
  Q 288.25 325.52 282.79 327.29
  A 0.58 0.58 0.0 0 1 282.27 326.28
  C 288.28 321.80 302.48 316.16 304.28 328.51
  Q 304.63 330.93 303.59 334.32
  Q 303.40 334.94 304.03 334.80
  Q 306.33 334.28 308.53 333.68
  Q 328.07 328.42 344.96 338.85
  Q 348.07 340.76 353.30 339.88
  Q 353.75 339.80 353.87 339.36
  C 364.28 302.47 353.10 264.79 325.25 238.54
  Q 324.90 238.22 324.45 238.35
  C 270.27 253.67 212.88 261.14 156.84 252.52
  A 0.65 0.63 23.0 0 0 156.23 252.76
  Q 145.06 267.17 140.34 284.79
  A 0.85 0.85 0.0 0 0 141.23 285.86
  C 148.61 285.35 160.53 290.67 158.49 300.04
  A 1.20 1.19 -50.8 0 1 156.23 300.27
  C 152.72 292.32 142.26 290.16 135.31 294.75
  C 127.82 299.70 126.58 312.58 132.06 319.34
  C 136.36 324.66 143.33 324.06 149.62 323.93
  Z
  M 392.90 335.31
  A 0.54 0.54 0.0 0 0 391.87 335.01
  C 388.24 343.60 382.22 350.51 384.17 360.39
  A 0.42 0.42 0.0 0 0 384.98 360.44
  C 387.77 351.82 391.34 344.66 392.90 335.31
  Z
  M 297.05 362.75
  L 297.64 364.40
  Q 297.83 364.92 298.39 364.92
  L 358.08 364.99
  Q 358.62 364.99 358.94 364.56
  Q 366.61 354.18 369.11 341.50
  A 0.45 0.45 0.0 0 0 368.42 341.04
  C 361.60 345.43 353.37 348.16 345.32 346.05
  Q 344.13 345.74 337.41 342.46
  C 322.10 334.99 307.97 339.91 293.50 346.53
  C 287.39 349.32 284.49 348.32 278.75 344.55
  Q 269.44 338.43 258.33 340.44
  C 252.34 341.52 249.03 344.20 244.21 347.98
  C 232.47 357.16 214.69 353.01 203.34 345.23
  Q 202.91 344.94 202.89 345.46
  C 202.32 360.29 208.40 375.83 222.75 381.46
  C 248.51 391.58 275.79 377.57 296.22 362.50
  A 0.54 0.54 0.0 0 1 297.05 362.75
  Z
  M 369.55 375.26
  Q 368.69 379.86 370.46 384.23
  A 0.94 0.94 0.0 0 0 372.04 384.49
  C 373.45 382.83 371.90 379.55 372.67 377.21
  A 0.34 0.34 0.0 0 1 373.32 377.25
  L 374.09 381.26
  A 0.59 0.59 0.0 0 0 375.23 381.33
  Q 377.28 374.92 372.99 369.82
  Q 372.64 369.39 372.09 369.34
  C 369.20 369.07 359.78 368.36 358.05 371.60
  Q 354.76 377.79 358.50 383.55
  A 0.83 0.83 0.0 0 0 360.01 383.00
  Q 359.64 379.88 360.13 376.50
  Q 360.27 375.52 360.90 375.09
  Q 361.34 374.78 361.36 375.32
  L 361.69 383.32
  Q 361.71 383.93 362.32 383.98
  L 367.72 384.36
  A 0.41 0.40 -2.3 0 0 368.15 383.90
  Q 367.49 379.44 368.79 375.07
  A 0.39 0.39 0.0 0 1 369.55 375.26
  Z
  M 308.11 370.75
  L 352.85 385.29
  A 0.79 0.79 0.0 0 0 353.83 384.26
  Q 351.14 377.26 353.74 370.24
  A 0.55 0.54 -80.7 0 0 353.22 369.51
  Q 331.12 369.92 309.00 369.32
  Q 307.89 369.29 307.67 369.79
  Q 307.36 370.51 308.11 370.75
  Z
  M 332.10 381.15
  Q 316.56 376.18 301.25 370.49
  Q 297.76 369.19 295.89 369.54
  C 288.90 370.85 289.37 385.12 297.00 385.03
  Q 310.92 384.85 324.84 385.19
  C 329.99 385.32 335.26 384.96 340.47 384.84
  Q 340.77 384.83 341.00 384.72
  Q 341.32 384.57 341.49 384.43
  A 0.53 0.52 33.6 0 0 341.30 383.52
  C 338.24 382.58 334.92 382.06 332.10 381.15
  Z
  M 268.47 385.49
  A 0.34 0.34 0.0 0 0 268.56 386.12
  L 277.82 388.28
  A 0.34 0.34 0.0 0 0 277.94 388.28
  L 288.51 387.18
  A 0.34 0.34 0.0 0 0 288.80 386.76
  L 285.99 376.14
  A 0.34 0.34 0.0 0 0 285.50 375.93
  L 268.47 385.49
  Z"
/>
<path fill="#2b2b2b" d="
  M 190.53 101.46
  C 214.37 96.75 245.20 93.49 270.58 91.50
  C 279.51 90.80 287.66 89.68 296.20 88.69
  C 298.32 88.45 303.44 88.59 304.76 90.55
  Q 305.27 91.30 305.35 93.05
  Q 306.77 127.67 310.78 162.06
  C 311.70 169.94 313.70 179.72 314.70 188.74
  A 2.19 2.19 0.0 0 1 313.10 191.09
  C 302.70 193.91 292.51 196.54 281.50 198.34
  C 263.26 201.32 244.91 204.75 226.42 205.53
  C 212.21 206.14 197.52 206.92 183.75 206.25
  Q 171.39 205.65 159.15 204.33
  A 2.17 2.17 0.0 0 1 157.22 202.20
  Q 157.17 193.01 155.44 183.72
  C 152.83 169.75 149.35 155.98 146.43 142.09
  C 144.64 133.58 142.18 124.53 142.71 116.00
  C 142.80 114.48 143.82 114.10 145.00 113.53
  Q 154.62 108.88 162.25 107.26
  Q 176.38 104.26 190.53 101.46
  Z"
/>
<path fill="#ffffff" d="
  M 314.80 219.84
  Q 234.85 241.04 152.51 230.42
  Q 152.05 230.36 152.02 229.90
  L 150.74 211.02
  A 0.58 0.58 0.0 0 1 151.39 210.40
  C 208.63 217.37 265.98 211.16 321.54 196.40
  Q 322.50 196.14 323.47 195.86
  A 0.83 0.83 0.0 0 1 324.35 196.15
  C 327.95 200.80 329.41 209.10 330.12 214.88
  Q 330.20 215.58 329.53 215.81
  C 324.71 217.48 318.23 218.93 314.80 219.84
  Z"
/>
<path fill="#2b2b2b" d="
  M 131.11 234.72
  C 137.66 233.85 144.87 235.67 153.52 237.10
  Q 182.02 241.82 216.48 240.88
  Q 222.13 240.72 232.50 239.86
  Q 240.48 239.20 248.50 238.77
  Q 255.97 238.37 271.64 235.86
  C 291.02 232.77 310.24 228.15 329.18 223.02
  C 333.63 221.82 337.92 219.63 342.03 218.58
  Q 349.96 216.57 357.95 214.83
  C 360.04 214.37 362.23 214.39 364.15 214.85
  A 0.96 0.96 0.0 0 1 364.41 216.62
  Q 357.68 220.45 350.46 223.16
  Q 340.97 226.72 315.22 234.12
  Q 305.91 236.80 277.80 242.60
  Q 268.42 244.53 258.05 245.66
  C 243.78 247.21 229.11 249.54 215.24 249.65
  C 196.89 249.80 177.34 249.30 159.26 246.01
  C 152.89 244.85 146.75 244.14 140.35 241.75
  Q 137.12 240.55 133.20 239.76
  Q 128.88 238.88 124.11 237.18
  A 0.89 0.89 0.0 0 1 124.34 235.46
  Q 127.48 235.20 131.11 234.72
  Z"
/>
<path fill="#e1babb" d="
  M 149.62 323.93
  C 143.33 324.06 136.36 324.66 132.06 319.34
  C 126.58 312.58 127.82 299.70 135.31 294.75
  C 142.26 290.16 152.72 292.32 156.23 300.27
  A 1.20 1.19 -50.8 0 0 158.49 300.04
  C 160.53 290.67 148.61 285.35 141.23 285.86
  A 0.85 0.85 0.0 0 1 140.34 284.79
  Q 145.06 267.17 156.23 252.76
  A 0.65 0.63 23.0 0 1 156.84 252.52
  C 212.88 261.14 270.27 253.67 324.45 238.35
  Q 324.90 238.22 325.25 238.54
  C 353.10 264.79 364.28 302.47 353.87 339.36
  Q 353.75 339.80 353.30 339.88
  Q 348.07 340.76 344.96 338.85
  Q 328.07 328.42 308.53 333.68
  Q 306.33 334.28 304.03 334.80
  Q 303.40 334.94 303.59 334.32
  Q 304.63 330.93 304.28 328.51
  C 302.48 316.16 288.28 321.80 282.27 326.28
  A 0.58 0.58 0.0 0 0 282.79 327.29
  Q 288.25 325.52 293.99 325.16
  C 296.40 325.01 298.40 325.18 299.45 327.64
  C 300.88 330.97 299.91 333.39 296.93 335.46
  Q 293.36 337.95 288.97 340.73
  A 3.47 3.45 45.9 0 1 285.16 340.66
  Q 282.81 339.06 279.98 337.25
  C 271.80 332.03 259.99 332.21 251.16 335.18
  C 246.21 336.84 241.95 341.30 237.70 343.68
  C 224.70 350.97 208.10 341.94 198.28 332.82
  A 0.86 0.86 0.0 0 0 196.85 333.28
  C 193.97 347.95 196.21 365.76 205.62 377.38
  C 217.92 392.57 241.18 393.62 258.93 388.32
  A 1.06 1.05 -36.1 0 1 259.84 388.46
  C 272.02 396.80 284.71 395.74 297.77 390.66
  Q 300.36 389.66 302.90 389.64
  Q 311.12 389.57 318.95 389.59
  A 0.77 0.77 0.0 0 1 319.42 390.96
  Q 289.56 414.26 252.75 416.11
  C 198.39 418.85 148.89 383.66 137.89 329.94
  A 0.89 0.89 0.0 0 1 138.75 328.87
  Q 144.88 328.78 150.14 325.84
  A 1.02 1.02 0.0 0 0 149.62 323.93
  Z
  M 243.98 292.28
  L 232.30 297.82
  A 2.06 2.04 -14.3 0 0 231.13 299.77
  C 231.53 307.69 235.93 325.00 245.77 326.70
  C 266.86 330.35 260.37 283.47 258.16 274.04
  C 256.15 265.46 250.73 252.89 239.90 257.78
  C 231.59 261.53 229.96 276.26 230.03 283.92
  A 1.61 1.61 0.0 0 0 231.00 285.40
  L 243.96 291.02
  A 0.69 0.69 0.0 0 1 243.98 292.28
  Z
  M 319.24 291.41
  L 307.26 296.87
  Q 306.10 297.40 306.26 298.66
  C 307.35 307.44 310.64 324.95 321.47 326.67
  C 340.10 329.63 336.41 290.90 334.99 281.77
  C 333.79 274.00 331.09 259.18 322.44 257.18
  C 308.60 253.98 305.41 273.34 305.48 282.75
  A 1.69 1.68 -78.4 0 0 306.48 284.28
  L 319.23 289.92
  A 0.82 0.82 0.0 0 1 319.24 291.41
  Z
  M 156.85 270.27
  Q 167.12 275.16 178.50 274.15
  Q 181.19 273.91 182.01 271.31
  A 1.67 1.67 0.0 0 0 180.71 269.16
  L 153.25 264.38
  A 1.62 1.62 0.0 0 0 151.70 266.97
  Q 153.11 268.79 155.00 269.54
  Q 156.78 270.24 156.85 270.27
  Z
  M 155.37 275.53
  Q 152.26 275.54 149.13 275.48
  Q 148.62 275.47 148.28 275.85
  Q 147.44 276.82 147.91 277.81
  Q 148.27 278.57 149.54 279.05
  C 157.36 282.03 165.97 284.74 174.43 284.76
  A 1.54 1.54 0.0 0 0 175.97 283.11
  C 175.84 281.41 174.72 281.17 173.52 280.47
  Q 165.15 275.52 155.37 275.53
  Z
  M 185.82 375.00
  C 186.65 364.86 180.60 354.13 172.09 348.98
  A 0.74 0.74 0.0 0 0 171.11 350.06
  C 177.85 359.15 182.93 366.48 182.97 378.38
  A 0.85 0.85 0.0 0 0 184.52 378.87
  Q 185.63 377.30 185.82 375.00
  Z"
/>
<path fill="#0c0c0c" d="
  M 243.98 292.28
  A 0.69 0.69 0.0 0 0 243.96 291.02
  L 231.00 285.40
  A 1.61 1.61 0.0 0 1 230.03 283.92
  C 229.96 276.26 231.59 261.53 239.90 257.78
  C 250.73 252.89 256.15 265.46 258.16 274.04
  C 260.37 283.47 266.86 330.35 245.77 326.70
  C 235.93 325.00 231.53 307.69 231.13 299.77
  A 2.06 2.04 -14.3 0 1 232.30 297.82
  L 243.98 292.28
  Z"
/>
<path fill="#0c0c0c" d="
  M 319.24 291.41
  A 0.82 0.82 0.0 0 0 319.23 289.92
  L 306.48 284.28
  A 1.69 1.68 -78.4 0 1 305.48 282.75
  C 305.41 273.34 308.60 253.98 322.44 257.18
  C 331.09 259.18 333.79 274.00 334.99 281.77
  C 336.41 290.90 340.10 329.63 321.47 326.67
  C 310.64 324.95 307.35 307.44 306.26 298.66
  Q 306.10 297.40 307.26 296.87
  L 319.24 291.41
  Z"
/>
<path fill="#ffffff" d="
  M 155.00 269.54
  Q 153.11 268.79 151.70 266.97
  A 1.62 1.62 0.0 0 1 153.25 264.38
  L 180.71 269.16
  A 1.67 1.67 0.0 0 1 182.01 271.31
  Q 181.19 273.91 178.50 274.15
  Q 167.12 275.16 156.85 270.27
  Q 156.78 270.24 155.00 269.54
  Z"
/>
<path fill="#ffffff" d="
  M 155.37 275.53
  Q 165.15 275.52 173.52 280.47
  C 174.72 281.17 175.84 281.41 175.97 283.11
  A 1.54 1.54 0.0 0 1 174.43 284.76
  C 165.97 284.74 157.36 282.03 149.54 279.05
  Q 148.27 278.57 147.91 277.81
  Q 147.44 276.82 148.28 275.85
  Q 148.62 275.47 149.13 275.48
  Q 152.26 275.54 155.37 275.53
  Z"
/>
<path fill="#ffffff" d="
  M 392.90 335.31
  C 391.34 344.66 387.77 351.82 384.98 360.44
  A 0.42 0.42 0.0 0 1 384.17 360.39
  C 382.22 350.51 388.24 343.60 391.87 335.01
  A 0.54 0.54 0.0 0 1 392.90 335.31
  Z"
/>
<path fill="#ffffff" d="
  M 297.05 362.75
  A 0.54 0.54 0.0 0 0 296.22 362.50
  C 275.79 377.57 248.51 391.58 222.75 381.46
  C 208.40 375.83 202.32 360.29 202.89 345.46
  Q 202.91 344.94 203.34 345.23
  C 214.69 353.01 232.47 357.16 244.21 347.98
  C 249.03 344.20 252.34 341.52 258.33 340.44
  Q 269.44 338.43 278.75 344.55
  C 284.49 348.32 287.39 349.32 293.50 346.53
  C 307.97 339.91 322.10 334.99 337.41 342.46
  Q 344.13 345.74 345.32 346.05
  C 353.37 348.16 361.60 345.43 368.42 341.04
  A 0.45 0.45 0.0 0 1 369.11 341.50
  Q 366.61 354.18 358.94 364.56
  Q 358.62 364.99 358.08 364.99
  L 298.39 364.92
  Q 297.83 364.92 297.64 364.40
  L 297.05 362.75
  Z"
/>
<path fill="#0c0c0c" d="
  M 172.09 348.98
  C 180.60 354.13 186.65 364.86 185.82 375.00
  Q 185.63 377.30 184.52 378.87
  A 0.85 0.85 0.0 0 1 182.97 378.38
  C 182.93 366.48 177.85 359.15 171.11 350.06
  A 0.74 0.74 0.0 0 1 172.09 348.98
  Z"
/>
<path fill="#e0365c" d="
  M 368.79 375.07
  Q 367.49 379.44 368.15 383.90
  A 0.41 0.40 -2.3 0 1 367.72 384.36
  L 362.32 383.98
  Q 361.71 383.93 361.69 383.32
  L 361.36 375.32
  Q 361.34 374.78 360.90 375.09
  Q 360.27 375.52 360.13 376.50
  Q 359.64 379.88 360.01 383.00
  A 0.83 0.83 0.0 0 1 358.50 383.55
  Q 354.76 377.79 358.05 371.60
  C 359.78 368.36 369.20 369.07 372.09 369.34
  Q 372.64 369.39 372.99 369.82
  Q 377.28 374.92 375.23 381.33
  A 0.59 0.59 0.0 0 1 374.09 381.26
  L 373.32 377.25
  A 0.34 0.34 0.0 0 0 372.67 377.21
  C 371.90 379.55 373.45 382.83 372.04 384.49
  A 0.94 0.94 0.0 0 1 370.46 384.23
  Q 368.69 379.86 369.55 375.26
  A 0.39 0.39 0.0 0 0 368.79 375.07
  Z
  M 363.64 374.56
  Q 364.09 377.63 363.48 380.71
  Q 363.27 381.77 363.50 382.30
  Q 363.87 383.15 364.90 383.15
  A 0.71 0.71 0.0 0 0 365.60 382.36
  L 364.71 374.39
  Q 364.68 374.09 364.37 374.09
  L 364.05 374.09
  Q 363.57 374.09 363.64 374.56
  Z"
/>
<path fill="#764c26" d="
  M 308.11 370.75
  Q 307.36 370.51 307.67 369.79
  Q 307.89 369.29 309.00 369.32
  Q 331.12 369.92 353.22 369.51
  A 0.55 0.54 -80.7 0 1 353.74 370.24
  Q 351.14 377.26 353.83 384.26
  A 0.79 0.79 0.0 0 1 352.85 385.29
  L 308.11 370.75
  Z"
/>
<path fill="#764c26" d="
  M 332.10 381.15
  C 334.92 382.06 338.24 382.58 341.30 383.52
  A 0.53 0.52 33.6 0 1 341.49 384.43
  Q 341.32 384.57 341.00 384.72
  Q 340.77 384.83 340.47 384.84
  C 335.26 384.96 329.99 385.32 324.84 385.19
  Q 310.92 384.85 297.00 385.03
  C 289.37 385.12 288.90 370.85 295.89 369.54
  Q 297.76 369.19 301.25 370.49
  Q 316.56 376.18 332.10 381.15
  Z"
/>
<path fill="#0c0c0c" d="
  M 364.05 374.09
  L 364.37 374.09
  Q 364.68 374.09 364.71 374.39
  L 365.60 382.36
  A 0.71 0.71 0.0 0 1 364.90 383.15
  Q 363.87 383.15 363.50 382.30
  Q 363.27 381.77 363.48 380.71
  Q 364.09 377.63 363.64 374.56
  Q 363.57 374.09 364.05 374.09
  Z"
/>
<path fill="#e0365c" d="
  M 268.47 385.49
  L 285.50 375.93
  A 0.34 0.34 0.0 0 1 285.99 376.14
  L 288.80 386.76
  A 0.34 0.34 0.0 0 1 288.51 387.18
  L 277.94 388.28
  A 0.34 0.34 0.0 0 1 277.82 388.28
  L 268.56 386.12
  A 0.34 0.34 0.0 0 1 268.47 385.49
  Z"
/>
</svg>
